HIERARCHY
ROOT locator2
{
  OFFSET 53.6172 30.1899 0.816905
  CHANNELS 6 Xposition Yposition Zposition Zrotation Xrotation Yrotation
  JOINT koshi
  {
    OFFSET 0 0 0
    CHANNELS 6 Xposition Yposition Zposition Zrotation Xrotation Yrotation
    JOINT sippo01
    {
      OFFSET 0 42.8363 -0.548134
      CHANNELS 6 Xposition Yposition Zposition Zrotation Xrotation Yrotation
      JOINT sippo02
      {
        OFFSET 0 44.0461 -3.28882
        CHANNELS 6 Xposition Yposition Zposition Zrotation Xrotation Yrotation
        JOINT sippo03
        {
          OFFSET 0 34.1929 -2.46662
          CHANNELS 6 Xposition Yposition Zposition Zrotation Xrotation Yrotation
          JOINT sippo04
          {
            OFFSET 0 30.0959 -1.75404
            CHANNELS 6 Xposition Yposition Zposition Zrotation Xrotation Yrotation
            JOINT sippo05
            {
              OFFSET 0 28.3637 -1.75404
              CHANNELS 6 Xposition Yposition Zposition Zrotation Xrotation Yrotation
              JOINT sippo06
              {
                OFFSET 0 31.6071 -3.2043
                CHANNELS 6 Xposition Yposition Zposition Zrotation Xrotation Yrotation
                End Site
                {
                  OFFSET 0 0 0
                }
              }
            }
          }
        }
      }
    }
    JOINT R_momo
    {
      OFFSET -27.891 13.5892 3.92723
      CHANNELS 6 Xposition Yposition Zposition Zrotation Xrotation Yrotation
      JOINT R_hiza
      {
        OFFSET 0 28.01 1.8232
        CHANNELS 6 Xposition Yposition Zposition Zrotation Xrotation Yrotation
        JOINT R_ashi
        {
          OFFSET 0 24.3992 -2.49174
          CHANNELS 6 Xposition Yposition Zposition Zrotation Xrotation Yrotation
          End Site
          {
            OFFSET 0 0 0
          }
        }
      }
    }
    JOINT L_momo
    {
      OFFSET 27.891 13.5892 3.92714
      CHANNELS 6 Xposition Yposition Zposition Zrotation Xrotation Yrotation
      JOINT L_hiza
      {
        OFFSET 0 28.0098 1.82319
        CHANNELS 6 Xposition Yposition Zposition Zrotation Xrotation Yrotation
        JOINT L_ashi
        {
          OFFSET 0 24.3992 -2.49171
          CHANNELS 6 Xposition Yposition Zposition Zrotation Xrotation Yrotation
          End Site
          {
            OFFSET 0 0 0
          }
        }
      }
    }
  }
  JOINT hara
  {
    OFFSET 0 2.15392 0
    CHANNELS 6 Xposition Yposition Zposition Zrotation Xrotation Yrotation
    JOINT mune
    {
      OFFSET 0 62.0609 0.472494
      CHANNELS 6 Xposition Yposition Zposition Zrotation Xrotation Yrotation
      JOINT R_kata
      {
        OFFSET 22.6695 9.65301 -5.3622
        CHANNELS 6 Xposition Yposition Zposition Zrotation Xrotation Yrotation
        JOINT R_hiji
        {
          OFFSET 0 25.813 1.69098
          CHANNELS 6 Xposition Yposition Zposition Zrotation Xrotation Yrotation
          JOINT R_te
          {
            OFFSET 0 28.5636 -0.966307
            CHANNELS 6 Xposition Yposition Zposition Zrotation Xrotation Yrotation
            End Site
            {
              OFFSET 0 0 0
            }
          }
        }
      }
      JOINT L_kata
      {
        OFFSET -22.6695 9.65298 -5.3622
        CHANNELS 6 Xposition Yposition Zposition Zrotation Xrotation Yrotation
        JOINT L_hiji
        {
          OFFSET 0 25.813 1.69102
          CHANNELS 6 Xposition Yposition Zposition Zrotation Xrotation Yrotation
          JOINT L_te
          {
            OFFSET 0 28.5636 -0.966295
            CHANNELS 6 Xposition Yposition Zposition Zrotation Xrotation Yrotation
            End Site
            {
              OFFSET 0 0 0
            }
          }
        }
      }
      JOINT kubi
      {
        OFFSET 0 23.1438 -0.944988
        CHANNELS 6 Xposition Yposition Zposition Zrotation Xrotation Yrotation
        JOINT atama
        {
          OFFSET 0 20.8625 4.12737
          CHANNELS 6 Xposition Yposition Zposition Zrotation Xrotation Yrotation
          JOINT ago
          {
            OFFSET 0 7.552 -7.58201
            CHANNELS 6 Xposition Yposition Zposition Zrotation Xrotation Yrotation
            End Site
            {
              OFFSET 0 0 0
            }
          }
        }
      }
    }
  }
}
MOTION
Frames:	8
Frame Time:	0.0333333
18.4698 27.8204 -2.23329 -90 -3.50835e-015 -90 -1.13687e-013 0 0 -168.96 -0.951491 0.674853 3.12924e-007 42.8363 -0.548132 -1.45713 -10.3441 3.11584 -3.96905e-007 44.0461 -3.28883 5.40131 9.57427 -5.05361 -2.92502e-006 34.1929 -2.46661 6.39896 1.07171 -1.70507 -4.96716e-006 30.0959 -1.75403 5.96884 9.40818 -0.743019 -2.22057e-005 28.3637 -1.75403 9.40434 -5.79627 5.73433 -1.47602e-005 31.6072 -3.2043 5.2118 -4.80707 -6.22686 -27.891 13.5892 3.92723 62.8973 -23.0132 -66.5405 4.1231e-006 28.01 1.8232 5.78281 -53.7166 -34.2495 -5.2103e-006 24.3992 -2.49173 -153.144 54.555 -166.157 27.891 13.5892 3.92714 -72.6751 -21.4342 69.1748 -5.76683e-006 28.0098 1.82319 -2.9985 -33.3978 23.6356 -4.9891e-007 24.3992 -2.49173 134.473 73.0465 170.675 6.07685e-007 2.15392 3.55271e-015 4.16625 -1.95312 2.44549 1.81721e-012 62.0609 0.472494 -7.95139e-016 -2.43511e-015 3.97569e-016 22.6695 9.653 -5.36221 -155.396 -0.534999 50.3999 -1.14441e-005 25.813 1.69098 -0.145893 -59.3784 2.2177 3.8147e-006 28.5636 -0.966309 42.2787 -23.586 -70.9298 -22.6695 9.65297 -5.3622 145.052 13.4687 -22.3922 -1.14441e-005 25.813 1.69102 -179.764 -66.5271 -178.824 -7.62167e-006 28.5636 -0.966296 -68.0984 13.4935 99.8055 -7.84262e-013 23.1438 -0.944994 10.1102 10.1756 19.0432 2.12651e-009 20.8625 4.12737 6.76376 15.5693 19.3935 -6.36093e-007 7.55203 -7.58201 -6.62421e-006 -23.0518 6.6242e-006 
17.5166 28.2585 -2.90812 -90 -3.50835e-015 -90 -1.13687e-013 0 0 -169.343 -0.684659 0.639362 3.12924e-007 42.8363 -0.548132 -1.45205 -10.2617 3.43732 -3.97894e-007 44.0461 -3.28883 4.47909 9.95774 -5.11169 -2.25346e-006 34.1929 -2.46661 6.19978 1.49612 -1.88873 -4.25596e-006 30.0959 -1.75403 4.88339 9.56899 -1.41199 -2.0882e-005 28.3637 -1.75403 9.19402 -4.8297 5.63425 -1.35481e-005 31.6072 -3.2043 5.03583 -5.65769 -5.63104 -27.891 13.5892 3.92723 64.5234 -24.5186 -66.7511 4.38014e-006 28.01 1.8232 5.25654 -52.0728 -31.7339 -4.82966e-006 24.3992 -2.49173 -152.065 56.4264 -166.22 27.891 13.5892 3.92714 -74.7475 -22.6583 69.3111 -6.03347e-006 28.0098 1.82319 -3.00958 -37.6395 22.6271 -3.66515e-007 24.3992 -2.49173 137.893 70.6037 168.871 6.07685e-007 2.15392 0 3.28073 -4.13687 2.12637 1.81855e-012 62.0609 0.472494 7.95139e-016 1.06847e-015 3.97569e-016 22.6695 9.653 -5.36221 -156.121 1.61873 50.9634 -1.14441e-005 25.813 1.69098 -0.181354 -66.6889 2.25467 3.8147e-006 28.5636 -0.966309 40.9887 -20.1 -72.1973 -22.6695 9.65297 -5.3622 147.139 14.6632 -28.4086 -1.14441e-005 25.813 1.69102 -179.802 -63.4884 -179.307 -7.62889e-006 28.5636 -0.966296 -65.3806 14.7469 98.416 -7.82929e-013 23.1438 -0.944994 10.1159 10.3525 21.1893 2.1265e-009 20.8625 4.12737 5.88172 15.8652 21.944 -6.27711e-007 7.55203 -7.58201 -7.34593e-006 -17.4963 7.34594e-006 
16.3075 28.7009 -3.58956 -90 -3.50835e-015 -90 -1.13687e-013 0 0 -169.728 -0.416686 0.606909 3.12924e-007 42.8363 -0.548132 -1.44746 -10.1755 3.76175 -3.98847e-007 44.0461 -3.28883 3.54693 10.3429 -4.66605 -1.60791e-006 34.1929 -2.46661 4.96915 1.93102 -2.03923 -2.81532e-006 30.0959 -1.75403 3.84502 9.72778 -2.09072 -1.88726e-005 28.3637 -1.75403 8.6456 -2.62145 5.34362 -1.15476e-005 31.6072 -3.20429 4.83774 -4.27711 -6.67234 -27.891 13.5892 3.92723 67.4839 -25.5687 -66.6411 4.70634e-006 28.01 1.8232 4.76931 -50.4319 -28.8979 -4.27151e-006 24.3992 -2.49173 -150.864 58.31 -166.39 27.891 13.5892 3.92714 -77.1113 -24.0587 69.2464 -6.32119e-006 28.0098 1.82319 -3.03782 -41.9111 21.599 -2.41296e-007 24.3992 -2.49173 140.927 68.2085 167.401 6.07685e-007 2.15392 0 2.38038 -4.82274 1.67165 1.81855e-012 62.0609 0.472494 -7.95139e-016 -8.94531e-016 -0 22.6695 9.653 -5.36221 -155.344 3.7556 50.1861 -1.14441e-005 25.813 1.69098 -0.225361 -72.1525 2.28268 3.8147e-006 28.5636 -0.966309 40.9759 -16.2692 -73.0255 -22.6695 9.65297 -5.3622 149.238 15.8639 -31.6339 -1.14441e-005 25.813 1.69102 -179.819 -62.5386 -179.765 -7.63768e-006 28.5636 -0.966296 -62.5278 16.2589 97.9041 -7.8515e-013 23.1438 -0.944994 9.51392 9.83059 22.1068 2.1265e-009 20.8625 4.12737 4.2745 14.6533 22.8261 -5.31785e-007 7.55203 -7.58201 1.83754e-006 -10.394 1.0185e-005 
14.7093 29.1347 -4.25777 -90 -3.50835e-015 -90 -1.13687e-013 0 0 -170.108 -0.150186 0.578992 3.12924e-007 42.8363 -0.548132 -1.52121 -9.8748 4.07819 -3.79956e-007 44.0461 -3.28883 2.63024 10.719 -4.21687 -9.56824e-007 34.1929 -2.46661 3.76243 2.35701 -2.33407 -1.34683e-006 30.0959 -1.75403 2.8258 9.88081 -2.64647 -1.68136e-005 28.3637 -1.75403 7.74295 0.10634 5.0261 -9.23547e-006 31.6072 -3.20429 4.35759 -2.92382 -7.69911 -27.891 13.5892 3.92723 71.1838 -26.8356 -66.4383 5.10987e-006 28.01 1.8232 4.52105 -50.9266 -25.8223 -3.74531e-006 24.3992 -2.49173 -149.523 60.1408 -166.711 27.891 13.5892 3.92714 -80.2235 -25.4428 68.855 -6.64114e-006 28.0098 1.82319 -3.11408 -46.5163 19.8422 -1.20775e-007 24.3992 -2.49173 142.797 66.2067 166.843 6.07685e-007 2.15392 0 1.49619 -5.4949 1.20543 1.81899e-012 62.0609 0.472494 -2.50592e-027 4.62485e-015 3.1045e-011 22.6695 9.653 -5.36221 -154.617 4.03961 50.4006 -1.14441e-005 25.813 1.69098 -0.309059 -77.5098 1.99731 3.8147e-006 28.5636 -0.966309 40.1025 -12.6151 -74.206 -22.6695 9.65297 -5.3622 149.547 14.4496 -35.6478 -1.14441e-005 25.813 1.69102 -179.835 -61.6086 -179.547 -7.63457e-006 28.5636 -0.966296 -59.8992 18.4845 98.971 -7.83373e-013 23.1438 -0.944994 7.94104 8.98996 21.9588 2.12651e-009 20.8625 4.12737 2.05433 11.7242 22.7799 -3.52972e-007 7.55203 -7.58201 -2.47136e-006 -7.21525 5.54903e-007 
13.387 29.5728 -4.56176 -90 -3.50835e-015 -90 -1.13687e-013 0 0 -170.489 0.118122 0.554246 3.12924e-007 42.8363 -0.548132 -1.59496 -9.57458 4.3921 -3.61337e-007 44.0461 -3.28883 1.70112 11.097 -3.75031 -2.9895e-007 34.1929 -2.46661 2.54391 2.78708 -2.61335 1.56688e-007 30.0959 -1.75403 1.7948 10.0326 -3.20262 -1.46766e-005 28.3637 -1.75402 6.65381 2.54917 4.84652 -6.65005e-006 31.6072 -3.20429 3.87584 -1.55444 -8.71346 -27.891 13.5892 3.92723 75.3942 -27.8383 -65.7476 5.51015e-006 28.01 1.8232 4.53835 -52.1148 -22.4752 -3.19607e-006 24.3992 -2.49173 -148.598 61.4223 -166.511 27.891 13.5892 3.92714 -83.0565 -26.3282 68.8604 -6.9049e-006 28.0098 1.82319 -3.17218 -50.3821 18.116 -6.47879e-008 24.3992 -2.49173 144.253 64.8376 166.355 6.07685e-007 2.15392 -3.55271e-015 0.600922 -6.17328 1.05458 1.8181e-012 62.0609 0.472494 -5.08887e-014 -7.63746e-013 1.00179e-005 22.6695 9.653 -5.36221 -153.881 4.3225 50.6103 -1.14441e-005 25.813 1.69098 -0.411784 -81.007 1.69222 3.8147e-006 28.5636 -0.966309 39.4459 -8.87796 -76.7299 -22.6695 9.65297 -5.3622 149.335 12.0224 -38.6719 -1.14441e-005 25.813 1.69102 -179.843 -62.304 -179.316 -7.63156e-006 28.5636 -0.966296 -57.4872 20.7931 100.498 -7.83373e-013 23.1438 -0.944994 5.94151 8.49133 21.0566 2.12651e-009 20.8625 4.12737 0.625021 8.74107 21.8422 -2.08617e-007 7.55203 -7.58201 -1.00464e-005 -5.50385 -7.78377e-007 
12.0516 30.0152 -4.42689 -90 -3.50835e-015 -90 -1.13687e-013 0 0 -170.875 0.389612 0.532868 3.12924e-007 42.8363 -0.548132 -1.66962 -9.27044 4.71095 -3.42767e-007 44.0461 -3.28883 0.762159 11.4756 -3.26741 3.63276e-007 34.1929 -2.46661 1.31282 3.8141 -2.89035 1.69013e-006 30.0959 -1.75402 0.7535 10.1826 -3.7582 -1.24769e-005 28.3637 -1.75401 5.35555 3.69837 4.9081 -3.78661e-006 31.6072 -3.20429 3.39202 -0.16991 -9.71433 -27.891 13.5892 3.92723 80.3477 -28.4911 -64.623 5.92192e-006 28.01 1.8232 4.71047 -54.6832 -20.7213 -2.78495e-006 24.3992 -2.49173 -148.494 61.9281 -166.501 27.891 13.5892 3.92714 -86.0047 -27.0971 67.7058 -7.12156e-006 28.0098 1.82319 -3.17255 -53.1783 16.4627 -3.03712e-008 24.3992 -2.49173 144.559 64.3909 166.494 6.07685e-007 2.15392 0 0.334523 -5.63384 0.950282 1.81988e-012 62.0609 0.472494 9.93923e-017 1.24862e-015 1.19402e-011 22.6695 9.653 -5.36221 -153.033 4.59934 50.806 -1.14441e-005 25.813 1.69098 -0.648657 -84.5381 1.25099 3.8147e-006 28.5636 -0.966309 39.0562 -5.79106 -78.6106 -22.6695 9.65297 -5.3622 147.984 9.47587 -41.5577 -1.14441e-005 25.813 1.69102 -179.85 -63.0067 -179.084 -7.62868e-006 28.5636 -0.966296 -55.2516 23.1015 102.289 -7.84262e-013 23.1438 -0.944994 4.21044 7.31521 19.749 2.12651e-009 20.8625 4.12737 0.088387 5.7145 20.6521 -1.1269e-007 7.55203 -7.58201 -9.74047e-006 -1.60896 9.74046e-006 
10.7422 30.449 -4.28906 -90 -3.50835e-015 -90 -1.13687e-013 0 0 -171.252 0.655727 0.515194 3.12924e-007 42.8363 -0.548132 -1.74334 -8.97012 5.02654 -3.24711e-007 44.0461 -3.28883 -0.162161 11.8445 -2.78113 1.01165e-006 34.1929 -2.46661 0.103782 4.82005 -3.11929 3.19818e-006 30.0959 -1.75401 -0.268095 10.3266 -4.29772 -1.03232e-005 28.3637 -1.75399 3.94967 3.78683 5.10816 -7.99532e-007 31.6072 -3.20428 2.92026 1.18834 -10.6729 -27.891 13.5892 3.92723 85.1924 -29.2257 -62.8374 6.29166e-006 28.01 1.8232 4.92044 -57.2495 -18.9635 -2.41442e-006 24.3992 -2.49173 -148.162 62.6544 -166.756 27.891 13.5892 3.92714 -89.009 -27.5532 66.5033 -7.31432e-006 28.0098 1.82319 -3.33441 -56.1069 14.7076 5.28142e-009 24.3992 -2.49173 144.971 63.9877 166.271 6.07685e-007 2.15392 -7.10543e-015 0.0749847 -5.10388 0.852626 1.81899e-012 62.0609 0.472494 -1.2424e-017 -1.08982e-015 -0 22.6695 9.653 -5.36221 -152.2 4.86569 50.9898 -1.14441e-005 25.813 1.69098 -1.70221 -88 -0.00270553 3.8147e-006 28.5636 -0.966309 38.8089 -2.75583 -80.4289 -22.6695 9.65297 -5.3622 146.654 6.50626 -43.5518 -1.14441e-005 25.813 1.69102 -179.857 -63.6956 -178.856 -7.62606e-006 28.5636 -0.966296 -53.2506 25.3315 104.3 -7.84262e-013 23.1438 -0.944994 2.65107 3.86213 18.4911 2.12651e-009 20.8625 4.12737 0.618043 1.94569 19.0355 -6.42614e-008 7.55203 -7.58201 -1.04119e-005 2.20969 1.04119e-005 
9.4198 30.0214 -4.14987 -90 -3.50835e-015 -90 -1.13687e-013 0 0 -171.633 0.924911 0.501191 3.12924e-007 42.8363 -0.548132 -1.81729 -8.66819 5.34469 -3.06891e-007 44.0461 -3.28883 -1.09461 11.8374 -2.28608 1.65314e-006 34.1929 -2.46662 -1.12097 5.83411 -3.30711 4.70215e-006 30.0959 -1.754 -1.30438 11.1315 -4.82228 -8.21592e-006 28.3637 -1.75397 2.462 3.13772 5.35714 2.28042e-006 31.6072 -3.20427 2.44468 2.56159 -11.6185 -27.891 13.5892 3.92723 90.1185 -29.2093 -60.9627 6.60792e-006 28.01 1.8232 5.17393 -59.8407 -17.1504 -2.01075e-006 24.3992 -2.49173 -147.805 63.3872 -167.163 27.891 13.5892 3.92714 -92.1123 -27.6978 64.2879 -7.47527e-006 28.0098 1.82319 -3.533 -59.0639 13.6261 6.88175e-008 24.3992 -2.49173 145.371 63.5801 166.007 6.07685e-007 2.15392 0 -0.189189 -4.56942 0.759015 1.81899e-012 62.0609 0.472494 4.96962e-017 4.87644e-016 -2.98177e-016 22.6695 9.653 -5.36221 -151.407 4.03114 50.618 -1.14441e-005 25.813 1.69098 -16.7534 -89.8026 -15.255 3.8147e-006 28.5636 -0.966309 38.6923 -0.308178 -82.6239 -22.6695 9.65297 -5.3622 145.057 3.59136 -45.6946 -1.14441e-005 25.813 1.69102 -179.866 -64.3923 -178.627 -7.62367e-006 28.5636 -0.966296 -51.4849 27.2506 106.187 -3.29514e-013 23.1438 -0.944994 1.5212 0.00397229 16.8545 2.12651e-009 20.8625 4.12737 1.04725 -1.72384 17.1072 -2.79398e-008 7.55203 -7.58201 -1.00911e-005 6.90071 1.21271e-006 
